<?xml version="1.0" encoding="utf-8"?>
<!-- Generator: Adobe Illustrator 15.0.0, SVG Export Plug-In . SVG Version: 6.00 Build 0)  -->
<!DOCTYPE svg PUBLIC "-//W3C//DTD SVG 1.1//EN" "http://www.w3.org/Graphics/SVG/1.1/DTD/svg11.dtd">
<svg version="1.1" id="Calque_1" xmlns="http://www.w3.org/2000/svg" xmlns:xlink="http://www.w3.org/1999/xlink" x="0px" y="0px"
	 width="105.01px" height="1944.971px" viewBox="0 0 105.01 1944.971" enable-background="new 0 0 105.01 1944.971"
	 xml:space="preserve">
<path fill="#FFFFFF" d="M52.505,7.33c-12.427,0-22.5,10.073-22.5,22.5s10.073,22.5,22.5,22.5s22.5-10.073,22.5-22.5
	S64.932,7.33,52.505,7.33z M52.453,13.18c2.733,0,4.948,2.215,4.948,4.948c0,2.733-2.215,4.948-4.948,4.948
	c-2.732,0-4.947-2.215-4.947-4.948C47.505,15.396,49.72,13.18,52.453,13.18z M57.186,46h-10V27h10V46z"/>
<g>
	<rect x="30.186" y="161" fill="#FFFFFF" width="10" height="32"/>
	<polygon fill="#FFFFFF" points="60.186,192.568 42.186,195.61 42.186,158.39 60.186,161.335 	"/>
	<polygon fill="#FFFFFF" points="75.186,195.61 62.186,192.568 62.186,161.335 75.186,158.39 	"/>
</g>
<g>
	<g>
		<polyline fill="#FFFFFF" points="34.186,314 34.186,298 37.186,298 37.186,296 30.187,296 33.498,305.809 30.005,315 34.186,315 
					"/>
	</g>
	<g>
		<polyline fill="#FFFFFF" points="70.186,314 70.186,298 67.186,298 67.186,296 74.824,296 71.513,305.809 75.005,315 70.186,315 
					"/>
	</g>
	<rect x="36.186" y="300" fill="#FFFFFF" width="32" height="18"/>
</g>
<g>
	<rect x="44.186" y="418" fill="#FFFFFF" width="18" height="30"/>
	<rect x="64.186" y="421" fill="#FFFFFF" width="7" height="24"/>
	<rect x="73.186" y="426" fill="#FFFFFF" width="2" height="16"/>
	<rect x="35.186" y="421" fill="#FFFFFF" width="7" height="24"/>
	<rect x="30.186" y="426" fill="#FFFFFF" width="3" height="16"/>
</g>
<g>
	<path fill="#FFFFFF" d="M70.892,552h-6.706v3.818c0,0.553,0.259,1.182-0.294,1.182h-2c-0.553,0-1.706-0.629-1.706-1.182V552h-16
		v3.818c0,0.553,0.258,1.182-0.295,1.182h-2c-0.552,0-1.705-0.629-1.705-1.182V552h-5.295c-1.104,0-2.705,0.714-2.705,1.818v36
		c0,1.104,1.601,2.182,2.705,2.182h36.001c1.104,0,1.294-1.077,1.294-2.182v-36C72.186,552.714,71.996,552,70.892,552z M70.186,589
		c0,0.553-0.447,1-1,1h-34c-0.552,0-1-0.447-1-1v-29c0-0.553,0.448-1,1-1h34c0.553,0,1,0.447,1,1V589z"/>
	<path fill="#FFFFFF" d="M40.186,552h4v-3c0,0-0.346-2.025-2-2.025s-2,1.943-2,1.943V552z"/>
	<path fill="#FFFFFF" d="M60.186,552h4v-3c0,0-0.346-2.025-2-2.025s-2,1.943-2,1.943V552z"/>
	<g>
		<path fill="#FFFFFF" d="M41.048,579.561c0.648,0.36,2.136,0.96,3.624,0.96c1.896,0,2.856-0.912,2.856-2.064
			c0-1.56-1.536-2.256-3.144-2.256h-1.488v-2.616h1.44c1.224,0,2.76-0.48,2.76-1.8c0-0.937-0.744-1.633-2.304-1.633
			c-1.272,0-2.616,0.553-3.24,0.937l-0.744-2.641c0.936-0.6,2.784-1.176,4.825-1.176c3.312,0,5.16,1.752,5.16,3.889
			c0,1.655-0.936,2.976-2.856,3.624v0.048c1.872,0.336,3.384,1.752,3.384,3.816c0,2.736-2.424,4.752-6.385,4.752
			c-2.016,0-3.72-0.527-4.632-1.08L41.048,579.561z"/>
		<path fill="#FFFFFF" d="M65.241,575.264c0,4.801-1.944,8.137-5.904,8.137c-4.033,0-5.809-3.624-5.833-8.04
			c0-4.537,1.896-8.089,5.929-8.089C63.584,567.271,65.241,570.991,65.241,575.264z M57.152,575.36c0,3.576,0.864,5.28,2.257,5.28
			c1.416,0,2.184-1.776,2.184-5.328c0-3.457-0.744-5.281-2.209-5.281C58.064,570.031,57.152,571.712,57.152,575.36z"/>
	</g>
</g>
<g>
	<path fill="#FFFFFF" d="M73.186,699c0,0.553-0.447,1-1,1h-39c-0.552,0-1-0.447-1-1v-6c0-0.553,0.448-1,1-1h39c0.553,0,1,0.447,1,1
		V699z"/>
	<path fill="#FFFFFF" d="M73.186,710c0,0.553-0.447,1-1,1h-39c-0.552,0-1-0.447-1-1v-6c0-0.553,0.448-1,1-1h39c0.553,0,1,0.447,1,1
		V710z"/>
	<path fill="#FFFFFF" d="M73.186,721c0,0.553-0.447,1-1,1h-39c-0.552,0-1-0.447-1-1v-6c0-0.553,0.448-1,1-1h39c0.553,0,1,0.447,1,1
		V721z"/>
</g>
<g>
	<path fill="#FFFFFF" d="M67.724,835.256c-4.316,0-7.472-3.41-7.472-7.727c0-0.92-0.168-1.529,0.125-2.529H33.362
		c-1.053,0-3.176,0.674-3.176,1.727v34.288c0,1.052,2.123,1.985,3.176,1.985h34.289c1.051,0,0.535-0.934,0.535-1.985v-25.853
		C68.186,835.217,68.115,835.256,67.724,835.256z"/>
	<path fill="#FFFFFF" d="M68.944,821.723c-3.006,0-5.441,2.438-5.441,5.441c0,3.006,2.436,5.443,5.441,5.443
		s5.443-2.438,5.443-5.443C74.387,824.16,71.95,821.723,68.944,821.723z M70.144,830l-1.241-2.02L67.662,830h-2.169l2.168-3.133
		L65.689,824h2.14l1.112,1.934L70.024,824h2.117l-1.956,2.901L72.326,830H70.144z"/>
</g>
<path fill="#FFFFFF" d="M64.186,973h-24 M40.186,973h-5.295c-1.104,0-2.705,0.714-2.705,1.818v36c0,1.104,1.601,2.182,2.705,2.182
	h36.001c1.104,0,1.294-1.077,1.294-2.182v-36c0-1.104-0.19-1.818-1.294-1.818h-6.706 M70.186,1010c0,0.553-0.447,1-1,1h-34
	c-0.552,0-1-0.447-1-1v-29c0-0.553,0.448-1,1-1h34c0.553,0,1,0.447,1,1V1010z"/>
<path fill="#FFFFFF" d="M68.186,1008c0,0.553-0.447,1-1,1h-30c-0.552,0-1-0.447-1-1v-25c0-0.553,0.448-1,1-1h30c0.553,0,1,0.447,1,1
	V1008z"/>
<g>
	<path fill="#FFFFFF" d="M41.186,1113v21h22v-21H41.186z M45.203,1129l7.13-11.25l7.373,11.25H45.203z"/>
	<path fill="#FFFFFF" d="M63.186,1158v-22h-22v22H63.186z M59.706,1141l-7.373,11.25l-7.13-11.25H59.706z"/>
</g>
<path fill="#FFFFFF" d="M51.186,1272v-2.734c0-0.424,0.514-0.266,0.937-0.266h0.765c0.424,0,1.299-0.158,1.299,0.266V1272H51.186z"
	/>
<path fill="#FFFFFF" d="M52.505,1272.786"/>
<g>
	<path fill="#FFFFFF" d="M51.357,1271L51.357,1271H36.051c-0.423,0-0.865-0.168-0.865,0.255V1274h35v-2.745
		c0-0.423-0.804-0.255-1.227-0.255H53.653l0,0H51.357z"/>
	<path fill="#FFFFFF" d="M35.186,1276v17.449c0,0.423,0.442,0.551,0.865,0.551h32.908c0.423,0,1.227-0.128,1.227-0.551V1276H35.186z
		"/>
</g>
<g>
	<line fill="none" stroke="#FFFFFF" stroke-miterlimit="10" x1="52.686" y1="1294" x2="52.686" y2="1314"/>
	<line fill="none" stroke="#FFFFFF" stroke-miterlimit="10" x1="52.913" y1="1294.215" x2="61.74" y2="1313.5"/>
	<line fill="none" stroke="#FFFFFF" stroke-miterlimit="10" x1="52.098" y1="1293.857" x2="43.27" y2="1313.144"/>
</g>
<g>
	<path fill="#FFFFFF" d="M74.186,1480.043c0,0.528-0.429,0.957-0.958,0.957H32.144c-0.529,0-0.958-0.429-0.958-0.957v-36.086
		c0-0.528,0.429-0.957,0.958-0.957h41.084c0.529,0,0.958,0.429,0.958,0.957V1480.043z"/>
	<path fill="#FFFFFF" d="M46.186,1440.043c0,0.528-0.429,0.957-0.957,0.957H32.143c-0.528,0-0.957-0.429-0.957-0.957v-3.086
		c0-0.528,0.429-0.957,0.957-0.957h13.086c0.528,0,0.957,0.429,0.957,0.957V1440.043z"/>
	<path fill="#FFFFFF" d="M63.186,1440.043c0,0.528-0.429,0.957-0.958,0.957H49.144c-0.529,0-0.958-0.429-0.958-0.957v-3.086
		c0-0.528,0.429-0.957,0.958-0.957h13.084c0.529,0,0.958,0.429,0.958,0.957V1440.043z"/>
</g>
<g>
	<path fill="none" stroke="#FFFFFF" stroke-miterlimit="10" d="M74.686,1605.5c0,6.627-5.373,12-12,12h-20c-6.627,0-12-5.373-12-12
		v-1c0-6.627,5.373-12,12-12h20c6.627,0,12,5.373,12,12V1605.5z"/>
	<path fill="#FFFFFF" d="M53.186,1618H42.505c-6.628,0-12.319-6.873-12.319-13.5v-1c0-6.627,5.691-11.5,12.319-11.5h10.681V1618z"/>
</g>
<path fill="#FFFFFF" d="M74.278,1735.948c0,10.174-9.748,18.422-21.772,18.422c-1.066,0-7.816,8.279-8.842,8.154
	c-1.085-0.133,3.558-8.677,2.53-8.939c-8.947-2.29-15.461-9.32-15.461-17.637c0-10.175,9.748-18.423,21.772-18.423
	S74.278,1725.773,74.278,1735.948z"/>
<g>
	<rect x="33.186" y="1860" fill="#FFFFFF" width="13" height="14"/>
	<rect x="59.186" y="1883" fill="#FFFFFF" width="13" height="14"/>
	<g>
		<g>
			<line fill="none" stroke="#FFFFFF" stroke-miterlimit="10" x1="39.686" y1="1878" x2="39.686" y2="1879"/>
			
				<line fill="none" stroke="#FFFFFF" stroke-miterlimit="10" stroke-dasharray="2,2" x1="39.686" y1="1881" x2="39.686" y2="1900"/>
			<line fill="none" stroke="#FFFFFF" stroke-miterlimit="10" x1="39.686" y1="1901" x2="39.686" y2="1902"/>
		</g>
	</g>
	
		<line fill="none" stroke="#FFFFFF" stroke-miterlimit="10" stroke-dasharray="2" x1="42.186" y1="1890.5" x2="55.186" y2="1890.5"/>
</g>
</svg>
